<?xml version="1.0" encoding="UTF-8"?>
<svg width="17px" height="17px" viewBox="0 0 17 17" version="1.1" xmlns="http://www.w3.org/2000/svg" xmlns:xlink="http://www.w3.org/1999/xlink">
    <!-- Generator: sketchtool 49.3 (51167) - http://www.bohemiancoding.com/sketch -->
    <title>555C3E81-38C6-4A11-8630-49143BC05426</title>
    <desc>Created with sketchtool.</desc>
    <defs></defs>
    <g id="Page-1" stroke="none" stroke-width="1" fill="none" fill-rule="evenodd">
        <g id="6degrees---首页推荐---展开tag" transform="translate(-1064.000000, -31.000000)" fill="#8E8E93" fill-rule="nonzero">
            <g id="Main-Menu-3">
                <g id="Search" transform="translate(881.000000, 24.000000)">
                    <g id="Icon-/-20-/-Grey-/-Search" transform="translate(183.000000, 7.000000)">
                        <path d="M16.5839512,14.5748825 L12.8907883,10.8817875 C12.8711608,10.86216 12.8481375,10.8484411 12.8276271,10.8301719 C13.5543202,9.72783966 13.9784509,8.40831442 13.9784509,6.98929336 C13.9784509,3.12919476 10.8492561,0 6.98922545,0 C3.12919476,0 0,3.12919476 0,6.98922545 C0,10.8491882 3.12912685,13.9784509 6.98915753,13.9784509 C8.40824651,13.9784509 9.72770383,13.5543202 10.8300361,12.8276271 C10.8483053,12.8480696 10.8619563,12.8710929 10.8815838,12.8907204 L14.5748146,16.5839512 C15.1296142,17.1386829 16.0290837,17.1386829 16.5839512,16.5839512 C17.1386829,16.0291516 17.1386829,15.1296822 16.5839512,14.5748825 Z M6.98922545,11.5555067 C4.46726086,11.5555067 2.42287625,9.51112212 2.42287625,6.98922545 C2.42287625,4.46726086 4.46732877,2.42287625 6.98922545,2.42287625 C9.5110542,2.42287625 11.5555067,4.46732877 11.5555067,6.98922545 C11.5555067,9.51112212 9.5110542,11.5555067 6.98922545,11.5555067 Z" id="Shape"></path>
                    </g>
                </g>
            </g>
        </g>
    </g>
</svg>