<?xml version="1.0" encoding="UTF-8"?>
<svg width="15px" height="15px" viewBox="0 0 15 15" version="1.1" xmlns="http://www.w3.org/2000/svg" xmlns:xlink="http://www.w3.org/1999/xlink">
    <!-- Generator: sketchtool 49.3 (51167) - http://www.bohemiancoding.com/sketch -->
    <title>C3B82139-8FA0-4DD9-9D14-0E943DAF6CA3</title>
    <desc>Created with sketchtool.</desc>
    <defs></defs>
    <g id="Page-1" stroke="none" stroke-width="1" fill="none" fill-rule="evenodd">
        <g id="6degrees---首页推荐---展开tag" transform="translate(-1185.000000, -30.000000)" fill="#595F6F" fill-rule="nonzero">
            <g id="Main-Menu-3">
                <g id="Placeholder">
                    <g id="Shopping-Bag_1997620_8e8e93" transform="translate(1185.000000, 30.000000)">
                        <path d="M14.5833333,3.40909091 L11.6666667,3.40909091 C11.6666667,1.52630199 9.80118646,1.51394049e-16 7.5,0 C5.19881354,-1.51394049e-16 3.33333333,1.52630199 3.33333333,3.40909091 L0.416666667,3.40909091 C0.186548021,3.40909091 0,3.56172111 0,3.75 L0,14.6590909 C0,14.8473698 0.186548021,15 0.416666667,15 L14.5833333,15 C14.813452,15 15,14.8473698 15,14.6590909 L15,3.75 C15,3.56172111 14.813452,3.40909091 14.5833333,3.40909091 Z M7.5,0.681818182 C9.34094917,0.681818182 10.8333333,1.90285977 10.8333333,3.40909091 L4.16666667,3.40909091 C4.16666667,1.90285977 5.65905083,0.681818182 7.5,0.681818182 Z M14.1666667,14.3181818 L0.833333333,14.3181818 L0.833333333,4.09090909 L3.33333333,4.09090909 L3.33333333,6.47727273 C3.33333333,6.66555162 3.51988135,6.81818182 3.75,6.81818182 C3.98011865,6.81818182 4.16666667,6.66555162 4.16666667,6.47727273 L4.16666667,4.09090909 L10.8333333,4.09090909 L10.8333333,6.47727273 C10.8333333,6.66555162 11.0198814,6.81818182 11.25,6.81818182 C11.4801186,6.81818182 11.6666667,6.66555162 11.6666667,6.47727273 L11.6666667,4.09090909 L14.1666667,4.09090909 L14.1666667,14.3181818 Z" id="Shape"></path>
                    </g>
                </g>
            </g>
        </g>
    </g>
</svg>