<?xml version="1.0" encoding="UTF-8"?>
<svg width="22px" height="20px" viewBox="0 0 22 20" version="1.1" xmlns="http://www.w3.org/2000/svg" xmlns:xlink="http://www.w3.org/1999/xlink">
    <!-- Generator: Sketch 50.2 (55047) - http://www.bohemiancoding.com/sketch -->
    <title>Group 12</title>
    <desc>Created with Sketch.</desc>
    <defs></defs>
    <g id="Page-1" stroke="none" stroke-width="1" fill="none" fill-rule="evenodd">
        <g id="6degrees-web--個人設定-我的點讚-選取" transform="translate(-1188.000000, -232.000000)" fill="#595F6F" fill-rule="nonzero">
            <g id="Group-12" transform="translate(1188.000000, 232.000000)">
                <path d="M21.7352028,4.31657385 C21.6420954,4.21906381 21.5229224,4.17005204 21.3780646,4.17005204 L16.577187,4.17005204 L15.489665,1.44981285 C15.3343591,1.04790487 15.0546562,0.705792405 14.6509372,0.423418386 C14.2468372,0.141101424 13.8375132,0 13.423346,0 L8.45165377,0 C8.03748665,0 7.62827148,0.141101424 7.22433475,0.423418386 C6.82034359,0.705792405 6.54069509,1.04784782 6.38528039,1.44981285 L5.29775841,4.17005204 L0.497098486,4.17005204 C0.351968583,4.17005204 0.233013215,4.21906381 0.139742629,4.31657385 C0.0467441269,4.41431212 0,4.53926648 0,4.69126575 L0,5.7339214 C0,5.88592067 0.0465264593,6.01087502 0.139742629,6.10844212 C0.233013215,6.20612333 0.352186251,6.25496394 0.497098486,6.25496394 L1.98844836,6.25496394 L1.98844836,16.7420006 C1.98844836,17.643669 2.23185521,18.4118244 2.71861448,19.0469806 C3.20548259,19.6825361 3.79068205,20 4.47432171,20 L17.4006237,20 C18.0844266,20 18.6695716,19.6715812 19.1563853,19.0147435 C19.6431446,18.3574493 19.8863882,17.578396 19.8863882,16.67707 L19.8863882,6.25496394 L21.3780102,6.25496394 C21.522868,6.25496394 21.6420954,6.20612333 21.7351483,6.10844212 C21.8280924,6.01093208 21.8749998,5.88592067 21.8749998,5.7339214 L21.8749998,4.69126575 C21.8751086,4.53926648 21.8281469,4.41431212 21.7352028,4.31657385 Z M8.21869497,2.26389903 C8.29112388,2.16621782 8.37922486,2.1063082 8.48278024,2.08474073 L13.4077284,2.08474073 C13.5112838,2.10647937 13.599548,2.16633193 13.6718681,2.26389903 L14.4178695,4.16982381 L7.45740238,4.16982381 L8.21869497,2.26389903 Z M17.7891604,17.676907 C17.7165683,17.8192842 17.6413097,17.9232948 17.56382,17.9887769 C17.4859494,18.054421 17.4319678,18.0870002 17.4006781,18.0870002 C14.5459669,18.0870002 12.4049335,18.0870002 10.977578,18.0870002 C9.532422,18.0870002 7.36468805,18.0870002 4.47437613,18.0870002 C4.44330407,18.0870002 4.38921366,18.054421 4.31134306,17.9887769 C4.23358129,17.9232948 4.15843154,17.8192842 4.0858938,17.676907 C4.01346489,17.5344894 3.97722322,17.3782711 3.97722322,17.2090211 L3.97722322,6.25496394 L17.8979398,6.25496394 L17.8978854,17.2090211 C17.8979398,17.378433 17.861807,17.5344894 17.7891604,17.676907 Z" id="Shape"></path>
                <path d="M6.71873717,20 L7.65626283,20 C7.79311253,20 7.90553762,19.9502834 7.99323021,19.8507338 C8.0809228,19.7508353 8.125,19.6238979 8.125,19.4687006 L8.125,9.90600869 C8.125,9.75116023 8.0809228,9.62381583 7.99323021,9.52414994 C7.90528105,9.4247748 7.79316384,9.375 7.65626283,9.375 L6.71873717,9.375 C6.58188747,9.375 6.46966763,9.42471665 6.38176979,9.52414994 C6.29397458,9.62381583 6.25,9.75116023 6.25,9.90600869 L6.25,19.4687006 C6.25,19.6238979 6.29382064,19.7508934 6.38176979,19.8507338 C6.46966763,19.9502252 6.58188747,20 6.71873717,20 Z" id="Shape"></path>
                <path d="M10.4687628,20 L11.4063398,20 C11.5431457,20 11.6555256,19.9502834 11.7431717,19.8507338 C11.8313309,19.7508353 11.875,19.6238979 11.875,19.4687006 L11.875,9.90600869 C11.875,9.75116023 11.8312796,9.62381583 11.7431717,9.52414994 C11.6555256,9.4247748 11.5431457,9.375 11.4063398,9.375 L10.4687628,9.375 C10.3320596,9.375 10.2196797,9.42471665 10.131777,9.52414994 C10.043823,9.62381583 10,9.75116023 10,9.90600869 L10,19.4687006 C10,19.6238979 10.043823,19.7508934 10.131777,19.8507338 C10.2196283,19.9502252 10.3320596,20 10.4687628,20 Z" id="Shape"></path>
                <path d="M14.2188911,20 L15.1563655,20 C15.2933328,20 15.4057189,19.9502834 15.4935237,19.8507338 C15.5813285,19.7508353 15.625,19.6238979 15.625,19.4687006 L15.625,9.90600869 C15.625,9.75116023 15.5812772,9.62381583 15.4935237,9.52414994 C15.4057189,9.4247748 15.2933328,9.375 15.1563655,9.375 L14.2188911,9.375 C14.0818725,9.375 13.9698456,9.42471665 13.8816816,9.52414994 C13.7938768,9.62381583 13.75,9.75116023 13.75,9.90600869 L13.75,19.4687006 C13.75,19.6238979 13.7938768,19.7508934 13.8816816,19.8507338 C13.9698456,19.9502252 14.0818725,20 14.2188911,20 Z" id="Shape"></path>
            </g>
        </g>
    </g>
</svg>