<?xml version="1.0" encoding="UTF-8"?>
<svg width="16px" height="18px" viewBox="0 0 16 18" version="1.1" xmlns="http://www.w3.org/2000/svg" xmlns:xlink="http://www.w3.org/1999/xlink">
    <!-- Generator: Sketch 50.2 (55047) - http://www.bohemiancoding.com/sketch -->
    <title>Group 41</title>
    <desc>Created with Sketch.</desc>
    <defs></defs>
    <g id="Page-1" stroke="none" stroke-width="1" fill="none" fill-rule="evenodd">
        <g id="6degrees---新闻阅读页" transform="translate(-1237.000000, -1347.000000)" fill="#595F6F" fill-rule="nonzero">
            <g id="Group-41" transform="translate(1237.000000, 1347.000000)">
                <path d="M8.41738066,8.45423224 C9.62487058,8.71413309 10.5263158,9.70661308 10.5263158,10.8878113 C10.5263158,12.0612101 9.63658145,13.0478256 8.44110276,13.3156102 L8.44110276,13.5922314 C8.44110276,13.9458198 8.14930326,14.2325581 7.78947368,14.2325581 C7.42964411,14.2325581 7.13784461,13.9458198 7.13784461,13.5922314 L7.13784461,13.3156102 C5.94236591,13.0478256 5.05263158,12.0612101 5.05263158,10.8878113 C5.05263158,10.5342229 5.34443108,10.2474846 5.70426065,10.2474846 C6.06409023,10.2474846 6.35588972,10.5342229 6.35588972,10.8878113 C6.35588972,11.3687286 6.68491747,11.7854994 7.16156671,11.9838364 L7.16156671,9.6021167 C5.95407678,9.34221698 5.05263158,8.34974484 5.05263158,7.16860145 C5.05263158,5.99520267 5.94236591,5.00858721 7.13784461,4.74080256 L7.13784461,4.40776861 C7.13784461,4.05418018 7.42964411,3.76744186 7.78947368,3.76744186 C8.14930326,3.76744186 8.44110276,4.05418018 8.44110276,4.40776861 L8.44110276,4.74080256 C9.63658145,5.00858721 10.5263158,5.99520267 10.5263158,7.16860145 C10.5263158,7.52218988 10.2345163,7.8089282 9.87468672,7.8089282 C9.51485714,7.8089282 9.22305764,7.52218988 9.22305764,7.16860145 C9.22305764,6.68768414 8.8940299,6.27091338 8.41738066,6.07257634 L8.41738066,8.45423224 Z M8.41738066,11.9838364 C8.8940299,11.7854994 9.22305764,11.3687286 9.22305764,10.8878113 C9.22305764,10.406894 8.8940299,9.99012327 8.41738066,9.79178623 L8.41738066,11.9838364 Z M7.16156671,6.07257634 C6.68491747,6.27091338 6.35588972,6.68768414 6.35588972,7.16860145 C6.35588972,7.64947296 6.68491747,8.06623068 7.16156671,8.26456401 L7.16156671,6.07257634 Z" id="Combined-Shape"></path>
                <path d="M11.3604042,2.32397755 L4.64956209,2.32397755 C4.26816836,2.32397755 3.91658357,2.52141858 3.72657483,2.83802226 L0.369791462,8.49518317 C0.183178415,8.80614138 0.183178415,9.18846789 0.371267566,9.50190088 L3.72521253,15.1596949 C3.91658357,15.4785814 4.26816836,15.6760225 4.64956209,15.6760225 L11.3604042,15.6760225 C11.7382558,15.6760225 12.0923244,15.4771866 12.2777407,15.1621696 L15.6323125,9.50333862 C15.816489,9.19042284 15.816489,8.80418643 15.6332756,8.49290028 L12.2768914,2.83639263 C12.0912038,2.52090949 11.741542,2.32397755 11.3604042,2.32397755 Z M11.3604042,1.25581395 C12.1194708,1.25581395 12.8220491,1.65151092 13.2003792,2.2943001 L16.5567633,7.95080776 C16.9373607,8.5974423 16.9373607,9.39716697 16.5559141,10.0452392 L13.2013423,15.7040703 C12.8229076,16.3470305 12.1156896,16.744186 11.3604042,16.744186 L4.64956209,16.744186 C3.89228182,16.744186 3.19087928,16.3502963 2.80393631,15.705508 L-0.550008658,10.047714 C-0.939243451,9.39912191 -0.939243451,8.59548736 -0.551370949,7.94917812 L2.80541241,2.29201721 C3.19087928,1.64970369 3.89228182,1.25581395 4.64956209,1.25581395 L11.3604042,1.25581395 Z" id="Shape" transform="translate(8.000000, 9.000000) rotate(-90.000000) translate(-8.000000, -9.000000) "></path>
            </g>
        </g>
    </g>
</svg>