<?xml version="1.0" encoding="UTF-8"?>
<svg width="20px" height="18px" viewBox="0 0 20 18" version="1.1" xmlns="http://www.w3.org/2000/svg" xmlns:xlink="http://www.w3.org/1999/xlink">
    <!-- Generator: Sketch 50.2 (55047) - http://www.bohemiancoding.com/sketch -->
    <title>Combined Shape</title>
    <desc>Created with Sketch.</desc>
    <defs></defs>
    <g id="Page-1" stroke="none" stroke-width="1" fill="none" fill-rule="evenodd">
        <g id="6degrees-web--個人設定-消息通知" transform="translate(-675.000000, -389.000000)" fill="#595F6F" fill-rule="nonzero">
            <path d="M680.250032,406.5 C678.92939,406.5 677.855618,405.426228 677.855684,404.105653 L677.855684,391.894347 C677.855684,390.573747 678.929411,389.5 680.250032,389.5 L688.936511,389.5 C689.34198,389.5 689.670748,389.828768 689.670748,390.234236 C689.670748,390.639705 689.34198,390.968472 688.936511,390.968472 L680.250032,390.968472 C679.739836,390.968472 679.324157,391.384152 679.324157,391.894347 L679.324157,404.105653 C679.324157,404.615815 679.739858,405.031528 680.250032,405.031528 L692.461282,405.031528 C692.971472,405.031528 693.387212,404.615799 693.387212,404.105653 L693.387212,391.894347 C693.387212,391.384157 692.971489,390.968434 692.461337,390.968472 C692.055869,390.968472 691.727101,390.639705 691.727101,390.234236 C691.727101,389.828768 692.055869,389.5 692.461337,389.5 C693.781938,389.5 694.855684,390.573726 694.855684,391.894347 L694.855684,404.105653 C694.855684,405.426246 693.78191,406.5 692.461282,406.5 L680.250032,406.5 Z M678.5157,404.166962 C678.471844,404.469425 678.425169,404.734733 678.378978,404.932785 C678.350068,405.056744 678.321124,405.156239 678.288863,405.235042 C678.26362,405.296703 678.235471,405.349471 678.195737,405.399061 C678.097787,405.521308 677.950601,405.602577 677.757257,405.558726 C676.944065,405.3746 676.200471,404.951127 675.622271,404.34712 L675,403.697074 L675.899223,403.662757 C676.666452,403.633476 677.394521,403.310407 677.93038,402.754909 C678.328746,402.651104 678.420915,402.627087 678.514633,402.75109 L678.514633,391.894347 C678.514633,390.937064 679.292749,390.158949 680.250032,390.158949 L688.936511,390.158949 C688.894892,390.158949 688.861224,390.192617 688.861224,390.234236 C688.861224,390.275855 688.894892,390.309524 688.936511,390.309524 L680.250032,390.309524 C679.376502,390.309524 678.665208,391.020831 678.665208,391.894347 L678.665208,404.105673 C678.665164,404.979156 679.376484,405.690476 680.250032,405.690476 L692.461282,405.690476 C693.334826,405.690476 694.046161,404.979155 694.046161,404.105653 L694.046161,391.894347 C694.046161,391.020817 693.334853,390.309524 692.461337,390.309524 C692.502956,390.309524 692.536625,390.275855 692.536625,390.234236 C692.536625,390.199749 692.513506,390.170721 692.481886,390.161785 C693.422775,390.163106 694.196736,390.939659 694.196736,391.894347 L694.196736,404.105653 C694.196736,405.062892 693.418554,405.841051 692.461282,405.841051 L680.250032,405.841051 C679.313286,405.841051 678.548077,405.095902 678.5157,404.166962 Z M682.308065,395.166667 C682.084656,395.166667 681.903303,394.985314 681.903303,394.761905 C681.903303,394.538495 682.084656,394.357143 682.308065,394.357143 C682.531475,394.357143 682.712827,394.538495 682.712827,394.761905 C682.712827,394.985314 682.531475,395.166667 682.308065,395.166667 Z M690.291983,394.357143 C690.577038,394.357143 690.808065,394.538337 690.808065,394.761905 C690.808065,394.985472 690.577038,395.166667 690.291983,395.166667 L683.789349,395.166667 C683.504294,395.166667 683.273267,394.985472 683.273267,394.761905 C683.273267,394.538337 683.504294,394.357143 683.789349,394.357143 L690.291983,394.357143 Z M690.329315,397.595238 C690.59375,397.595238 690.808065,397.776432 690.808065,398 C690.808065,398.223568 690.59375,398.404762 690.329315,398.404762 L682.382054,398.404762 C682.117619,398.404762 681.903303,398.223568 681.903303,398 C681.903303,397.776432 682.117619,397.595238 682.382054,397.595238 L690.329315,397.595238 Z M690.527846,400.833333 C690.751255,400.833333 690.932607,401.014686 690.932607,401.238095 C690.932607,401.461505 690.751255,401.642857 690.527846,401.642857 C690.304436,401.642857 690.123084,401.461505 690.123084,401.238095 C690.123084,401.014686 690.304436,400.833333 690.527846,400.833333 Z M682.419386,401.642857 C682.134331,401.642857 681.903303,401.461663 681.903303,401.238095 C681.903303,401.014528 682.134331,400.833333 682.419386,400.833333 L688.92202,400.833333 C689.207075,400.833333 689.438102,401.014528 689.438102,401.238095 C689.438102,401.461663 689.207075,401.642857 688.92202,401.642857 L682.419386,401.642857 Z" id="Combined-Shape"></path>
        </g>
    </g>
</svg>