<?xml version="1.0" encoding="UTF-8"?>
<svg width="33px" height="37px" viewBox="0 0 33 37" version="1.1" xmlns="http://www.w3.org/2000/svg" xmlns:xlink="http://www.w3.org/1999/xlink">
    <!-- Generator: Sketch 50.2 (55047) - http://www.bohemiancoding.com/sketch -->
    <title>Group 17</title>
    <desc>Created with Sketch.</desc>
    <defs></defs>
    <g id="Page-1" stroke="none" stroke-width="1" fill="none" fill-rule="evenodd" opacity="0.302957589">
        <g id="6degrees---新闻阅读页" transform="translate(-1320.000000, -641.000000)" fill="#84B4CC">
            <g id="Group-17" transform="translate(1320.000000, 641.000000)">
                <path d="M11.0913964,8.84782609 L22.1031895,8.84782609 L22.1031895,10.7835643 L12.869204,10.7835643 L12.2323774,17.121118 L12.3385151,17.121118 C12.869204,16.4847109 13.5590994,16.0074056 14.3816671,15.6892021 C15.1246315,15.3709986 15.9206647,15.2384138 16.7963013,15.2384138 C18.6006433,15.2384138 20.0600375,15.7952699 21.1744841,16.9354993 C22.2889306,18.1022456 22.8726883,19.6932633 22.8726883,21.7350693 C22.8726883,23.6442905 22.1827928,25.2087912 20.8295363,26.4285714 C19.5558831,27.5688008 17.9638167,28.1521739 16.1064058,28.1521739 C14.434736,28.1521739 13.0018762,27.7013856 11.8343608,26.7998089 C10.5076387,25.7921644 9.79120879,24.4132824 9.65853659,22.6896799 L11.8078263,22.6896799 C11.9139641,23.8829431 12.391584,24.8110368 13.2406861,25.4474439 C13.9836505,26.0043 14.9654248,26.2959866 16.1329402,26.2959866 C17.4596623,26.2959866 18.5475744,25.8717152 19.4232109,25.0231725 C20.2723131,24.1746297 20.7233986,23.0874343 20.7233986,21.7615862 C20.7233986,20.2501194 20.2988475,19.0833731 19.5028143,18.2613473 C18.7333155,17.4128046 17.6454034,17.0150502 16.2656124,17.0150502 C15.3634414,17.0150502 14.5674082,17.2006689 13.8509783,17.5984233 C13.1080139,17.9696608 12.5242562,18.5530339 12.1527741,19.2955088 L10.0830876,19.2955088 L11.0913964,8.84782609 Z" id="5"></path>
                <path d="M23.3825352,4.59933717 L9.63787706,4.59933717 C8.85673421,4.59933717 8.13664384,5.00345512 7.74748176,5.65147255 L0.872362522,17.2304248 C0.490155268,17.8668872 0.490155268,18.6494246 0.875385771,19.2909524 L7.74469161,30.8712003 C8.13664384,31.5238903 8.85673421,31.9280083 9.63787706,31.9280083 L23.3825352,31.9280083 C24.1564234,31.9280083 24.8816009,31.5210354 25.261357,30.8762657 L32.1319467,19.2938951 C32.5091636,18.653426 32.5091636,17.8628858 32.1339192,17.2257522 L25.2596176,5.64813706 C24.8793057,5.00241313 24.1631539,4.59933717 23.3825352,4.59933717 Z M23.3825352,2.41304348 C24.9372001,2.41304348 26.3761698,3.22294731 27.151038,4.53859402 L34.0253396,16.1162092 C34.8048513,17.4397265 34.8048513,19.0765853 34.0236002,20.4030454 L27.1530105,31.9854159 C26.3779281,33.3014128 24.9294558,34.114302 23.3825352,34.114302 L9.63787706,34.114302 C8.08687076,34.114302 6.65030914,33.3080971 5.85780074,31.9883586 L-1.0115051,20.4081107 C-1.80870746,19.0805867 -1.80870746,17.4357252 -1.01429525,16.1128737 L5.86082399,4.53392146 C6.65030914,3.21924831 8.08687076,2.41304348 9.63787706,2.41304348 L23.3825352,2.41304348 Z" id="Shape" fill-rule="nonzero" transform="translate(16.500000, 18.263673) rotate(-90.000000) translate(-16.500000, -18.263673) "></path>
            </g>
        </g>
    </g>
</svg>