<?xml version="1.0" encoding="UTF-8"?>
<svg width="33px" height="37px" viewBox="0 0 33 37" version="1.1" xmlns="http://www.w3.org/2000/svg" xmlns:xlink="http://www.w3.org/1999/xlink">
    <!-- Generator: Sketch 50.2 (55047) - http://www.bohemiancoding.com/sketch -->
    <title>Group 21</title>
    <desc>Created with Sketch.</desc>
    <defs></defs>
    <g id="Page-1" stroke="none" stroke-width="1" fill="none" fill-rule="evenodd" opacity="0.302957589">
        <g id="6degrees---新闻阅读页" transform="translate(-1320.000000, -599.000000)" fill="#84B4CC">
            <g id="Group-21" transform="translate(1320.000000, 599.000000)">
                <path d="M16.5101455,8.04347826 L18.3137938,8.04347826 L18.3137938,28.1521739 L16.0028694,28.1521739 L16.0028694,10.8598222 C14.7346792,12.1553404 13.156487,13.0565705 11.2682927,13.6198392 L11.2682927,11.3104372 C12.1701168,11.0569663 13.128305,10.6626781 14.0864931,10.0994093 C15.0446813,9.47981366 15.8337774,8.80389112 16.5101455,8.04347826 Z" id="1"></path>
                <path d="M23.3825352,4.59933717 L9.63787706,4.59933717 C8.85673421,4.59933717 8.13664384,5.00345512 7.74748176,5.65147255 L0.872362522,17.2304248 C0.490155268,17.8668872 0.490155268,18.6494246 0.875385771,19.2909524 L7.74469161,30.8712003 C8.13664384,31.5238903 8.85673421,31.9280083 9.63787706,31.9280083 L23.3825352,31.9280083 C24.1564234,31.9280083 24.8816009,31.5210354 25.261357,30.8762657 L32.1319467,19.2938951 C32.5091636,18.653426 32.5091636,17.8628858 32.1339192,17.2257522 L25.2596176,5.64813706 C24.8793057,5.00241313 24.1631539,4.59933717 23.3825352,4.59933717 Z M23.3825352,2.41304348 C24.9372001,2.41304348 26.3761698,3.22294731 27.151038,4.53859402 L34.0253396,16.1162092 C34.8048513,17.4397265 34.8048513,19.0765853 34.0236002,20.4030454 L27.1530105,31.9854159 C26.3779281,33.3014128 24.9294558,34.114302 23.3825352,34.114302 L9.63787706,34.114302 C8.08687076,34.114302 6.65030914,33.3080971 5.85780074,31.9883586 L-1.0115051,20.4081107 C-1.80870746,19.0805867 -1.80870746,17.4357252 -1.01429525,16.1128737 L5.86082399,4.53392146 C6.65030914,3.21924831 8.08687076,2.41304348 9.63787706,2.41304348 L23.3825352,2.41304348 Z" id="Shape" fill-rule="nonzero" transform="translate(16.500000, 18.263673) rotate(-90.000000) translate(-16.500000, -18.263673) "></path>
            </g>
        </g>
    </g>
</svg>