<?xml version="1.0" encoding="UTF-8"?>
<svg width="33px" height="37px" viewBox="0 0 33 37" version="1.1" xmlns="http://www.w3.org/2000/svg" xmlns:xlink="http://www.w3.org/1999/xlink">
    <!-- Generator: Sketch 50.2 (55047) - http://www.bohemiancoding.com/sketch -->
    <title>Group 14</title>
    <desc>Created with Sketch.</desc>
    <defs></defs>
    <g id="Page-1" stroke="none" stroke-width="1" fill="none" fill-rule="evenodd" opacity="0.302957589">
        <g id="6degrees---新闻阅读页" transform="translate(-1320.000000, -767.000000)" fill="#84B4CC">
            <g id="Group-14" transform="translate(1320.000000, 767.000000)">
                <path d="M4.80673171,13.0722609 L10.8191707,13.0722609 L10.8191707,14.1291739 L5.77741463,14.1291739 L5.42970732,17.5894783 L5.48765854,17.5894783 C5.77741463,17.242 6.15409756,16.9813913 6.60321951,16.8076522 C7.00887805,16.633913 7.4435122,16.5615217 7.92160976,16.5615217 C8.90678049,16.5615217 9.70360976,16.8655652 10.3120976,17.4881304 C10.9205854,18.1251739 11.2393171,18.9938696 11.2393171,20.1086957 C11.2393171,21.1511304 10.8626341,22.0053478 10.1237561,22.6713478 C9.42834146,23.293913 8.55907317,23.6124348 7.54492683,23.6124348 C6.63219512,23.6124348 5.84985366,23.3663043 5.21239024,22.8740435 C4.488,22.3238696 4.09682927,21.571 4.02439024,20.629913 L5.19790244,20.629913 C5.25585366,21.2814348 5.51663415,21.7881739 5.9802439,22.1356522 C6.38590244,22.4396957 6.92195122,22.5989565 7.55941463,22.5989565 C8.28380488,22.5989565 8.87780488,22.3673043 9.35590244,21.904 C9.8195122,21.4406957 10.0658049,20.847087 10.0658049,20.1231739 C10.0658049,19.297913 9.834,18.6608696 9.39936585,18.2120435 C8.97921951,17.7487391 8.38521951,17.5315652 7.63185366,17.5315652 C7.13926829,17.5315652 6.70463415,17.632913 6.31346341,17.850087 C5.90780488,18.0527826 5.58907317,18.3713043 5.3862439,18.7766957 L4.25619512,18.7766957 L4.80673171,13.0722609 Z M16.6867317,12.8695652 C17.9181951,12.8695652 18.8454146,13.4052609 19.482878,14.5056087 C20.0334146,15.4322174 20.3086829,16.6773478 20.3086829,18.241 C20.3086829,19.8046522 20.0334146,21.0497826 19.482878,21.9763913 C18.8454146,23.0622609 17.9181951,23.6124348 16.6867317,23.6124348 C15.4407805,23.6124348 14.513561,23.0622609 13.8905854,21.9763913 C13.3400488,21.0497826 13.0647805,19.8046522 13.0647805,18.241 C13.0647805,16.6773478 13.3400488,15.4322174 13.8905854,14.5056087 C14.513561,13.4052609 15.4407805,12.8695652 16.6867317,12.8695652 Z M16.6867317,13.8830435 C15.7595122,13.8830435 15.0930732,14.3753043 14.6874146,15.3743043 C14.3976585,16.0692609 14.2527805,17.0248261 14.2527805,18.241 C14.2527805,19.4426957 14.3976585,20.3982609 14.6874146,21.1076957 C15.0930732,22.0922174 15.7595122,22.5989565 16.6867317,22.5989565 C17.6139512,22.5989565 18.2803902,22.0922174 18.6860488,21.1076957 C18.9758049,20.3982609 19.1351707,19.4426957 19.1351707,18.241 C19.1351707,17.0248261 18.9758049,16.0692609 18.6860488,15.3743043 C18.2803902,14.3753043 17.6139512,13.8830435 16.6867317,13.8830435 Z M25.7416098,12.8695652 C26.9730732,12.8695652 27.9002927,13.4052609 28.5377561,14.5056087 C29.0882927,15.4322174 29.363561,16.6773478 29.363561,18.241 C29.363561,19.8046522 29.0882927,21.0497826 28.5377561,21.9763913 C27.9002927,23.0622609 26.9730732,23.6124348 25.7416098,23.6124348 C24.4956585,23.6124348 23.568439,23.0622609 22.9454634,21.9763913 C22.3949268,21.0497826 22.1196585,19.8046522 22.1196585,18.241 C22.1196585,16.6773478 22.3949268,15.4322174 22.9454634,14.5056087 C23.568439,13.4052609 24.4956585,12.8695652 25.7416098,12.8695652 Z M25.7416098,13.8830435 C24.8143902,13.8830435 24.1479512,14.3753043 23.7422927,15.3743043 C23.4525366,16.0692609 23.3076585,17.0248261 23.3076585,18.241 C23.3076585,19.4426957 23.4525366,20.3982609 23.7422927,21.1076957 C24.1479512,22.0922174 24.8143902,22.5989565 25.7416098,22.5989565 C26.6688293,22.5989565 27.3352683,22.0922174 27.7409268,21.1076957 C28.0306829,20.3982609 28.1900488,19.4426957 28.1900488,18.241 C28.1900488,17.0248261 28.0306829,16.0692609 27.7409268,15.3743043 C27.3352683,14.3753043 26.6688293,13.8830435 25.7416098,13.8830435 Z" id="500"></path>
                <path d="M23.3825352,4.59933717 L9.63787706,4.59933717 C8.85673421,4.59933717 8.13664384,5.00345512 7.74748176,5.65147255 L0.872362522,17.2304248 C0.490155268,17.8668872 0.490155268,18.6494246 0.875385771,19.2909524 L7.74469161,30.8712003 C8.13664384,31.5238903 8.85673421,31.9280083 9.63787706,31.9280083 L23.3825352,31.9280083 C24.1564234,31.9280083 24.8816009,31.5210354 25.261357,30.8762657 L32.1319467,19.2938951 C32.5091636,18.653426 32.5091636,17.8628858 32.1339192,17.2257522 L25.2596176,5.64813706 C24.8793057,5.00241313 24.1631539,4.59933717 23.3825352,4.59933717 Z M23.3825352,2.41304348 C24.9372001,2.41304348 26.3761698,3.22294731 27.151038,4.53859402 L34.0253396,16.1162092 C34.8048513,17.4397265 34.8048513,19.0765853 34.0236002,20.4030454 L27.1530105,31.9854159 C26.3779281,33.3014128 24.9294558,34.114302 23.3825352,34.114302 L9.63787706,34.114302 C8.08687076,34.114302 6.65030914,33.3080971 5.85780074,31.9883586 L-1.0115051,20.4081107 C-1.80870746,19.0805867 -1.80870746,17.4357252 -1.01429525,16.1128737 L5.86082399,4.53392146 C6.65030914,3.21924831 8.08687076,2.41304348 9.63787706,2.41304348 L23.3825352,2.41304348 Z" id="Shape" fill-rule="nonzero" transform="translate(16.500000, 18.263673) rotate(-90.000000) translate(-16.500000, -18.263673) "></path>
            </g>
        </g>
    </g>
</svg>