<?xml version="1.0" encoding="UTF-8"?>
<svg width="33px" height="37px" viewBox="0 0 33 37" version="1.1" xmlns="http://www.w3.org/2000/svg" xmlns:xlink="http://www.w3.org/1999/xlink">
    <!-- Generator: Sketch 50.2 (55047) - http://www.bohemiancoding.com/sketch -->
    <title>Group 15</title>
    <desc>Created with Sketch.</desc>
    <defs></defs>
    <g id="Page-1" stroke="none" stroke-width="1" fill="none" fill-rule="evenodd" opacity="0.302957589">
        <g id="6degrees---新闻阅读页" transform="translate(-1320.000000, -725.000000)" fill="#84B4CC">
            <g id="Group-15" transform="translate(1320.000000, 725.000000)">
                <path d="M8.32887805,13.0722609 L9.25609756,13.0722609 L9.25609756,23.4097391 L8.06809756,23.4097391 L8.06809756,14.520087 C7.41614634,15.186087 6.60482927,15.6493913 5.63414634,15.9389565 L5.63414634,14.7517391 C6.0977561,14.6214348 6.59034146,14.4187391 7.08292683,14.1291739 C7.5755122,13.8106522 7.98117073,13.4631739 8.32887805,13.0722609 Z M15.5148293,12.8695652 C16.7462927,12.8695652 17.6735122,13.4052609 18.3109756,14.5056087 C18.8615122,15.4322174 19.1367805,16.6773478 19.1367805,18.241 C19.1367805,19.8046522 18.8615122,21.0497826 18.3109756,21.9763913 C17.6735122,23.0622609 16.7462927,23.6124348 15.5148293,23.6124348 C14.268878,23.6124348 13.3416585,23.0622609 12.7186829,21.9763913 C12.1681463,21.0497826 11.892878,19.8046522 11.892878,18.241 C11.892878,16.6773478 12.1681463,15.4322174 12.7186829,14.5056087 C13.3416585,13.4052609 14.268878,12.8695652 15.5148293,12.8695652 Z M15.5148293,13.8830435 C14.5876098,13.8830435 13.9211707,14.3753043 13.5155122,15.3743043 C13.2257561,16.0692609 13.080878,17.0248261 13.080878,18.241 C13.080878,19.4426957 13.2257561,20.3982609 13.5155122,21.1076957 C13.9211707,22.0922174 14.5876098,22.5989565 15.5148293,22.5989565 C16.4420488,22.5989565 17.1084878,22.0922174 17.5141463,21.1076957 C17.8039024,20.3982609 17.9632683,19.4426957 17.9632683,18.241 C17.9632683,17.0248261 17.8039024,16.0692609 17.5141463,15.3743043 C17.1084878,14.3753043 16.4420488,13.8830435 15.5148293,13.8830435 Z M24.5697073,12.8695652 C25.8011707,12.8695652 26.7283902,13.4052609 27.3658537,14.5056087 C27.9163902,15.4322174 28.1916585,16.6773478 28.1916585,18.241 C28.1916585,19.8046522 27.9163902,21.0497826 27.3658537,21.9763913 C26.7283902,23.0622609 25.8011707,23.6124348 24.5697073,23.6124348 C23.3237561,23.6124348 22.3965366,23.0622609 21.773561,21.9763913 C21.2230244,21.0497826 20.9477561,19.8046522 20.9477561,18.241 C20.9477561,16.6773478 21.2230244,15.4322174 21.773561,14.5056087 C22.3965366,13.4052609 23.3237561,12.8695652 24.5697073,12.8695652 Z M24.5697073,13.8830435 C23.6424878,13.8830435 22.9760488,14.3753043 22.5703902,15.3743043 C22.2806341,16.0692609 22.1357561,17.0248261 22.1357561,18.241 C22.1357561,19.4426957 22.2806341,20.3982609 22.5703902,21.1076957 C22.9760488,22.0922174 23.6424878,22.5989565 24.5697073,22.5989565 C25.4969268,22.5989565 26.1633659,22.0922174 26.5690244,21.1076957 C26.8587805,20.3982609 27.0181463,19.4426957 27.0181463,18.241 C27.0181463,17.0248261 26.8587805,16.0692609 26.5690244,15.3743043 C26.1633659,14.3753043 25.4969268,13.8830435 24.5697073,13.8830435 Z" id="100"></path>
                <path d="M23.3825352,4.59933717 L9.63787706,4.59933717 C8.85673421,4.59933717 8.13664384,5.00345512 7.74748176,5.65147255 L0.872362522,17.2304248 C0.490155268,17.8668872 0.490155268,18.6494246 0.875385771,19.2909524 L7.74469161,30.8712003 C8.13664384,31.5238903 8.85673421,31.9280083 9.63787706,31.9280083 L23.3825352,31.9280083 C24.1564234,31.9280083 24.8816009,31.5210354 25.261357,30.8762657 L32.1319467,19.2938951 C32.5091636,18.653426 32.5091636,17.8628858 32.1339192,17.2257522 L25.2596176,5.64813706 C24.8793057,5.00241313 24.1631539,4.59933717 23.3825352,4.59933717 Z M23.3825352,2.41304348 C24.9372001,2.41304348 26.3761698,3.22294731 27.151038,4.53859402 L34.0253396,16.1162092 C34.8048513,17.4397265 34.8048513,19.0765853 34.0236002,20.4030454 L27.1530105,31.9854159 C26.3779281,33.3014128 24.9294558,34.114302 23.3825352,34.114302 L9.63787706,34.114302 C8.08687076,34.114302 6.65030914,33.3080971 5.85780074,31.9883586 L-1.0115051,20.4081107 C-1.80870746,19.0805867 -1.80870746,17.4357252 -1.01429525,16.1128737 L5.86082399,4.53392146 C6.65030914,3.21924831 8.08687076,2.41304348 9.63787706,2.41304348 L23.3825352,2.41304348 Z" id="Shape" fill-rule="nonzero" transform="translate(16.500000, 18.263673) rotate(-90.000000) translate(-16.500000, -18.263673) "></path>
            </g>
        </g>
    </g>
</svg>