<?xml version="1.0" encoding="UTF-8"?>
<svg width="33px" height="37px" viewBox="0 0 33 37" version="1.1" xmlns="http://www.w3.org/2000/svg" xmlns:xlink="http://www.w3.org/1999/xlink">
    <!-- Generator: Sketch 50.2 (55047) - http://www.bohemiancoding.com/sketch -->
    <title>Group 16</title>
    <desc>Created with Sketch.</desc>
    <defs></defs>
    <g id="Page-1" stroke="none" stroke-width="1" fill="none" fill-rule="evenodd" opacity="0.603125">
        <g id="6degrees---新闻阅读页" transform="translate(-1320.000000, -683.000000)" fill="#84B4CC">
            <g id="Group-16" transform="translate(1320.000000, 683.000000)">
                <path d="M10.9383963,11.5387666 L12.20962,11.5387666 L12.20962,25.7115133 L10.5808646,25.7115133 L10.5808646,13.5237451 C9.68703549,14.4368352 8.57471475,15.0720284 7.24390244,15.4690241 L7.24390244,13.8413417 C7.87951429,13.6626936 8.55485188,13.3847966 9.23018947,12.9878009 C9.90552706,12.5511056 10.4616874,12.0747108 10.9383963,11.5387666 Z M20.79038,11.2608696 C22.478724,11.2608696 23.7499477,11.9953116 24.623914,13.5038953 C25.378703,14.7742816 25.7560976,16.4813631 25.7560976,18.62514 C25.7560976,20.7689168 25.378703,22.4759983 24.623914,23.7463846 C23.7499477,25.2351185 22.478724,25.9894103 20.79038,25.9894103 C19.0821731,25.9894103 17.8109494,25.2351185 16.956846,23.7463846 C16.2020569,22.4759983 15.8246624,20.7689168 15.8246624,18.62514 C15.8246624,16.4813631 16.2020569,14.7742816 16.956846,13.5038953 C17.8109494,11.9953116 19.0821731,11.2608696 20.79038,11.2608696 Z M20.79038,12.6503545 C19.5191563,12.6503545 18.6054643,13.3252472 18.0493039,14.6948824 C17.6520465,15.6476721 17.4534178,16.957758 17.4534178,18.62514 C17.4534178,20.2726721 17.6520465,21.582758 18.0493039,22.5553975 C18.6054643,23.9051829 19.5191563,24.5999254 20.79038,24.5999254 C22.0616037,24.5999254 22.9752957,23.9051829 23.5314561,22.5553975 C23.9287135,21.582758 24.1472051,20.2726721 24.1472051,18.62514 C24.1472051,16.957758 23.9287135,15.6476721 23.5314561,14.6948824 C22.9752957,13.3252472 22.0616037,12.6503545 20.79038,12.6503545 Z" id="10"></path>
                <path d="M23.3825352,4.59933717 L9.63787706,4.59933717 C8.85673421,4.59933717 8.13664384,5.00345512 7.74748176,5.65147255 L0.872362522,17.2304248 C0.490155268,17.8668872 0.490155268,18.6494246 0.875385771,19.2909524 L7.74469161,30.8712003 C8.13664384,31.5238903 8.85673421,31.9280083 9.63787706,31.9280083 L23.3825352,31.9280083 C24.1564234,31.9280083 24.8816009,31.5210354 25.261357,30.8762657 L32.1319467,19.2938951 C32.5091636,18.653426 32.5091636,17.8628858 32.1339192,17.2257522 L25.2596176,5.64813706 C24.8793057,5.00241313 24.1631539,4.59933717 23.3825352,4.59933717 Z M23.3825352,2.41304348 C24.9372001,2.41304348 26.3761698,3.22294731 27.151038,4.53859402 L34.0253396,16.1162092 C34.8048513,17.4397265 34.8048513,19.0765853 34.0236002,20.4030454 L27.1530105,31.9854159 C26.3779281,33.3014128 24.9294558,34.114302 23.3825352,34.114302 L9.63787706,34.114302 C8.08687076,34.114302 6.65030914,33.3080971 5.85780074,31.9883586 L-1.0115051,20.4081107 C-1.80870746,19.0805867 -1.80870746,17.4357252 -1.01429525,16.1128737 L5.86082399,4.53392146 C6.65030914,3.21924831 8.08687076,2.41304348 9.63787706,2.41304348 L23.3825352,2.41304348 Z" id="Shape" fill-rule="nonzero" transform="translate(16.500000, 18.263673) rotate(-90.000000) translate(-16.500000, -18.263673) "></path>
            </g>
        </g>
    </g>
</svg>