<?xml version="1.0" encoding="UTF-8"?>
<svg width="47px" height="52px" viewBox="0 0 47 52" version="1.1" xmlns="http://www.w3.org/2000/svg" xmlns:xlink="http://www.w3.org/1999/xlink">
    <!-- Generator: Sketch 50.2 (55047) - http://www.bohemiancoding.com/sketch -->
    <title>Group 7</title>
    <desc>Created with Sketch.</desc>
    <defs></defs>
    <g id="Page-1" stroke="none" stroke-width="1" fill="none" fill-rule="evenodd">
        <g id="6degrees---新闻阅读页" transform="translate(-1314.000000, -497.000000)" fill-rule="nonzero">
            <g id="Group-7" transform="translate(1314.000000, 437.000000)">
                <path d="M1.29253762,33 C4.81700792,33 8.0907759,34.8513178 9.86125674,37.8670751 L17.6518673,51.0298905 C19.4523963,54.0967358 19.4512853,57.8926393 17.6419653,60.9743856 L9.87248331,74.11388 C8.09389597,77.1433519 4.81053747,79 1.29253762,79 L-14.2662303,79 C-17.7770671,79 -21.0336536,77.1637045 -22.8491153,74.1306791 L-30.6112873,61.0033089 C-32.4593477,57.9160382 -32.4611464,54.0744053 -30.6271668,51.0108391 L-22.8319033,37.8403907 C-21.0326664,34.8346818 -17.7752001,33 -14.2662303,33 L1.29253762,33 Z M76.6198915,47.7224653 C76.6231461,47.7280088 76.6264177,47.7335363 76.6297062,47.7390479 L76.6198915,47.7224653 Z M76.6297935,71.2952116 L76.6383637,71.280718 C76.6354937,71.285537 76.632637,71.2903682 76.6297935,71.2952116 Z M57.6157656,60.9119651 C57.6203567,60.9042954 57.6249067,60.8966077 57.6294158,60.8889025 L57.6157656,60.9119651 Z M78.7711198,72.5547644 L78.7729527,72.5516647 C78.7723532,72.5526695 78.7717425,72.5537022 78.7711198,72.5547644 Z" id="Shape" fill="#84B4CC" transform="translate(23.386476, 56.000000) rotate(-90.000000) translate(-23.386476, -56.000000) "></path>
                <g id="Group" transform="translate(5.000000, 65.000000)" fill="#FFFFFF">
                    <path d="M19.94,19.7379096 C22.8335087,20.3173354 25,22.6043777 25,25.3293807 C25,28.0203752 22.886881,30.2830133 20.047619,30.8971328 L20.047619,31.5315173 C20.047619,32.3424135 19.3545952,33 18.5,33 C17.6454048,33 16.952381,32.3424135 16.952381,31.5315173 L16.952381,30.8971328 C14.113119,30.2830133 12,28.0203752 12,25.3293807 C12,24.5184845 12.6930238,23.860898 13.547619,23.860898 C14.4022143,23.860898 15.0952381,24.5184845 15.0952381,25.3293807 C15.0952381,26.4488607 15.9003452,27.4167761 17.06,27.8630999 L17.06,22.3913173 C14.1664913,21.8118939 12,19.5248691 12,16.7999927 C12,14.1089981 14.113119,11.84636 16.952381,11.2322405 L16.952381,10.4684827 C16.952381,9.65758655 17.6454048,9 18.5,9 C19.3545952,9 20.047619,9.65758655 20.047619,10.4684827 L20.047619,11.2322405 C22.886881,11.84636 25,14.1089981 25,16.7999927 C25,17.6108888 24.3069762,18.2684753 23.452381,18.2684753 C22.5977857,18.2684753 21.9047619,17.6108888 21.9047619,16.7999927 C21.9047619,15.6805126 21.0996548,14.7125972 19.94,14.2662734 L19.94,19.7379096 Z M19.94,27.8630999 C21.0996548,27.4167761 21.9047619,26.4488607 21.9047619,25.3293807 C21.9047619,24.2099006 21.0996548,23.2419852 19.94,22.7956614 L19.94,27.8630999 Z M17.06,14.2662734 C15.9003452,14.7125972 15.0952381,15.6805126 15.0952381,16.7999927 C15.0952381,17.9193661 15.9003452,18.8872523 17.06,19.3335681 L17.06,14.2662734 Z" id="Combined-Shape"></path>
                    <path d="M26.2909372,5.48275862 L10.7321693,5.48275862 C9.84792606,5.48275862 9.03279346,5.94167561 8.59226723,6.67756525 L0.809724848,19.826642 C0.377071384,20.5494097 0.377071384,21.4380605 0.813147125,22.1665804 L8.58910882,35.3171286 C9.03279346,36.0583244 9.84792606,36.5172414 10.7321693,36.5172414 L26.2909372,36.5172414 C27.1669682,36.5172414 27.9878593,36.0550824 28.4177381,35.3228808 L36.1951531,22.1699222 C36.6221576,21.4426044 36.6221576,20.5448658 36.1973859,19.8213358 L28.4157691,6.67377746 C27.9852612,5.94049233 27.174587,5.48275862 26.2909372,5.48275862 Z M26.2909372,3 C28.0507968,3 29.6796912,3.91972809 30.5568315,5.41377861 L38.3384483,18.5613369 C39.2208451,20.0643254 39.2208451,21.9231448 38.3364794,23.429475 L30.5590644,36.5824336 C29.6816816,38.0768818 28.0420304,39 26.2909372,39 L10.7321693,39 C8.97645101,39 7.35028261,38.0844725 6.45317377,36.5857754 L-1.32278793,23.4352272 C-2.22521026,21.9276888 -2.22521026,20.0597814 -1.32594634,18.5575492 L6.45659604,5.40847243 C7.35028261,3.9155275 8.97645101,3 10.7321693,3 L26.2909372,3 Z" id="Shape" transform="translate(18.500000, 21.000000) rotate(-90.000000) translate(-18.500000, -21.000000) "></path>
                </g>
            </g>
        </g>
    </g>
</svg>