<?xml version="1.0" encoding="UTF-8"?>
<svg width="20px" height="28px" viewBox="0 0 20 28" version="1.1" xmlns="http://www.w3.org/2000/svg" xmlns:xlink="http://www.w3.org/1999/xlink">
    <!-- Generator: Sketch 50.2 (55047) - http://www.bohemiancoding.com/sketch -->
    <title>Group 5</title>
    <desc>Created with Sketch.</desc>
    <defs></defs>
    <g id="Page-1" stroke="none" stroke-width="1" fill="none" fill-rule="evenodd">
        <g id="6degrees-web--個人設定-我的點讚-選取" transform="translate(-407.000000, -144.000000)" fill="#4A90E2" fill-rule="nonzero">
            <g id="Group-5" transform="translate(407.000000, 144.000000)">
                <path d="M19.8155843,22.0077679 L18.4700851,19.522606 L18.4700851,13.3852985 C18.4700851,9.59139509 15.8810077,6.38164621 12.3503448,5.3766183 L12.3503448,2.31308036 C12.3503987,1.03763114 11.2960643,0 10.0000173,0 C8.70397024,0 7.6496358,1.03763114 7.6496358,2.31308036 L7.6496358,5.37667132 C4.11908068,6.38175223 1.5298956,9.5914481 1.5298956,13.3853516 L1.5298956,19.522606 L0.184450217,22.0077679 C-0.0746622214,22.4863198 -0.0600097093,23.0495871 0.223559496,23.5145675 C0.507182571,23.979442 1.00542185,24.2570201 1.55645327,24.2570201 L6.89804812,24.2570201 C6.98903376,25.8633789 8.34530691,27.1428571 10.0000173,27.1428571 C11.6546737,27.1428571 13.0110008,25.8633789 13.1019864,24.2570201 L18.4436351,24.2570201 C18.9946127,24.2570201 19.4928519,23.979442 19.7765289,23.5145675 C20.0599904,23.0495871 20.0746429,22.4863198 19.8155843,22.0077679 Z M8.89326777,2.31308036 C8.89326777,1.71243862 9.38972936,1.22386719 9.99996339,1.22386719 C10.6101974,1.22386719 11.106659,1.71243862 11.106659,2.31308036 L11.106659,5.12109375 C10.7443326,5.07433594 10.3749492,5.04994978 9.99996339,5.04994978 C9.62486985,5.04994978 9.25554036,5.07438895 8.89326777,5.12109375 L8.89326777,2.31308036 Z M2.77358143,13.3852985 C2.77358143,9.46400391 6.015342,6.27371094 10.0000173,6.27371094 C13.9846925,6.27371094 17.2264531,9.46400391 17.2264531,13.3852985 L17.2264531,19.0162221 L2.77358143,19.0162221 L2.77358143,13.3852985 Z M10.0000173,25.91899 C9.03138924,25.91899 8.23336603,25.1878292 8.14502,24.2570201 L11.8551223,24.2570201 C11.7666685,25.1878292 10.9685375,25.91899 10.0000173,25.91899 Z M18.7101815,22.8846094 C18.6829236,22.9292997 18.6024964,23.0331529 18.4436351,23.0331529 L1.55645327,23.0331529 C1.3976459,23.0331529 1.31711095,22.9292997 1.28990684,22.8846094 C1.26264886,22.8400251 1.20737872,22.7212221 1.28209576,22.5832282 L2.55066932,20.2400893 L17.4494729,20.2400893 L18.7180465,22.5832282 C18.7926558,22.7212221 18.7373318,22.8399721 18.7101815,22.8846094 Z" id="Shape"></path>
                <path d="M10.0685813,7.85714286 C6.87994361,7.85714286 4.28571429,10.4513722 4.28571429,13.6400098 C4.28571429,13.9965653 4.57480729,14.2857143 4.93141873,14.2857143 C5.28803016,14.2857143 5.57712317,13.9965653 5.57712317,13.6400098 C5.57712317,11.1634763 7.59199177,9.14855174 10.0685813,9.14855174 C10.4251927,9.14855174 10.7142857,8.85940279 10.7142857,8.5028473 C10.7142857,8.14617992 10.4251927,7.85714286 10.0685813,7.85714286 Z" id="Shape"></path>
            </g>
        </g>
    </g>
</svg>