<?xml version="1.0" encoding="UTF-8"?>
<svg width="20px" height="20px" viewBox="0 0 20 20" version="1.1" xmlns="http://www.w3.org/2000/svg" xmlns:xlink="http://www.w3.org/1999/xlink">
    <!-- Generator: Sketch 50.2 (55047) - http://www.bohemiancoding.com/sketch -->
    <title>Group 11</title>
    <desc>Created with Sketch.</desc>
    <defs></defs>
    <g id="Page-1" stroke="none" stroke-width="1" fill="none" fill-rule="evenodd">
        <g id="6degrees-web--個人設定-我的點讚-選取" transform="translate(-637.000000, -148.000000)" fill="#4A90E2" fill-rule="nonzero">
            <g id="Group-11" transform="translate(637.000000, 148.000000)">
                <g id="Group-23">
                    <path d="M6.79545455,19.8636364 L0.75,19.8636364 C0.340909091,19.8636364 0,19.5227273 0,19.1136364 L0,12.9772727 L0,0.75 C0,0.340909091 0.340909091,0 0.75,0 L3.38636364,0 C3.70454545,0 3.95454545,0.25 3.95454545,0.568181818 C3.95454545,0.886363636 3.70454545,1.13636364 3.38636364,1.13636364 L1.13636364,1.13636364 L1.13636364,12.9772727 L1.13636364,18.7272727 L6.79545455,18.7272727 L18.75,18.7272727 L18.75,12.9772727 L18.75,1.13636364 L12.5227273,1.13636364 C12.2045455,1.13636364 11.9545455,0.886363636 11.9545455,0.568181818 C11.9545455,0.25 12.2045455,0 12.5227273,0 L19.1363636,2.01858732e-16 C19.5454545,2.01858732e-16 19.8863636,0.340909091 19.8863636,0.75 L19.8863636,12.9772727 L19.8863636,19.1136364 C19.8863636,19.5227273 19.5454545,19.8636364 19.1363636,19.8636364 L6.79545455,19.8636364 Z M10.4196214,0 C10.6511178,0 10.8330078,0.164635039 10.8330078,0.374170543 L10.8330078,9.90803599 C10.8330078,10.2822065 10.5022987,10.581543 10.0889123,10.581543 C9.90702228,10.581543 9.72513226,10.5216757 9.59284861,10.4019411 L7.757413,8.90525893 L5.92197738,10.4019411 C5.78969373,10.5216757 5.60780372,10.581543 5.4259137,10.581543 C5.0125273,10.581543 4.68181818,10.2822065 4.68181818,9.90803599 L4.68181818,0.374170543 C4.68181818,0.164635039 4.8637082,1.32932081e-16 5.09520458,1.32932081e-16 L10.4196214,0 Z M10.006235,0.748341087 L5.49205553,0.748341087 L5.49205553,9.74340095 L7.26134932,8.30658606 C7.39363297,8.20181831 7.57552298,8.1269842 7.757413,8.1269842 C7.93930301,8.1269842 8.12119303,8.18685149 8.25347668,8.30658606 L10.0227705,9.74340095 L10.0227705,0.748341087 L10.006235,0.748341087 Z" id="Shape"></path>
                </g>
            </g>
        </g>
    </g>
</svg>