<?xml version="1.0" encoding="UTF-8"?>
<svg width="22px" height="22px" viewBox="0 0 22 22" version="1.1" xmlns="http://www.w3.org/2000/svg" xmlns:xlink="http://www.w3.org/1999/xlink">
    <!-- Generator: Sketch 50.2 (55047) - http://www.bohemiancoding.com/sketch -->
    <title>Group 7</title>
    <desc>Created with Sketch.</desc>
    <defs></defs>
    <g id="Page-1" stroke="none" stroke-width="1" fill="none" fill-rule="evenodd">
        <g id="6degrees-web--個人設定-我的點讚-選取" transform="translate(-1120.000000, -147.000000)" fill="#4A90E2" fill-rule="nonzero" stroke="#4A90E2">
            <g id="Group-7" transform="translate(1121.000000, 148.000000)">
                <path d="M17.5422769,0 L2.45779095,0 C1.10255662,0 0,1.10255662 0,2.45772312 L0,17.5422769 C0,18.8975112 1.10255662,20 2.45772312,20 C2.68245365,20 2.86472077,19.8177329 2.86472077,19.5930024 C2.86472077,19.3682718 2.68245365,19.1860047 2.45772312,19.1860047 C1.55140719,19.1860725 0.813995292,18.4486606 0.813995292,17.5422769 L0.813995292,2.45772312 C0.813995292,1.55140719 1.55140719,0.813995292 2.45779095,0.813995292 L17.5422769,0.813995292 C18.4486606,0.813995292 19.1860047,1.55140719 19.1860047,2.45772312 L19.1860047,17.5422769 C19.1860047,18.4486606 18.4486606,19.1860047 17.5422769,19.1860047 L6.8119196,19.1860047 C6.58718907,19.1860047 6.40492196,19.3682718 6.40492196,19.5930024 C6.40492196,19.8177329 6.58718907,20 6.8119196,20 L17.5422769,20 C18.8975112,20 20,18.8974434 20,17.5422769 L20,2.45772312 C20.0000678,1.10255662 18.8975112,0 17.5422769,0 Z" id="Shape"></path>
                <path d="M10.0921696,3.22580645 C9.86315834,3.22580645 9.67741935,3.40653681 9.67741935,3.62937257 L9.67741935,9.64452551 C9.67741935,9.7515378 9.72110638,9.85417811 9.79887205,9.92991402 L16.7113762,16.6560159 C16.7923216,16.7347786 16.8984977,16.7741935 17.0046046,16.7741935 C17.1107115,16.7741935 17.2168876,16.7347786 17.297833,16.6560159 C17.4598621,16.4984234 17.4598621,16.2428988 17.297833,16.0853062 L10.5068507,9.47738188 L10.5068507,3.62937257 C10.5069198,3.40646955 10.3211809,3.22580645 10.0921696,3.22580645 Z" id="Shape"></path>
            </g>
        </g>
    </g>
</svg>