<?xml version="1.0" encoding="UTF-8"?>
<svg width="24px" height="22px" viewBox="0 0 24 22" version="1.1" xmlns="http://www.w3.org/2000/svg" xmlns:xlink="http://www.w3.org/1999/xlink">
    <!-- Generator: Sketch 50.2 (55047) - http://www.bohemiancoding.com/sketch -->
    <title>Shape</title>
    <desc>Created with Sketch.</desc>
    <defs></defs>
    <g id="Page-1" stroke="none" stroke-width="1" fill="none" fill-rule="evenodd">
        <g id="6degrees-web--個人設定-我的點讚-選取" transform="translate(-887.000000, -147.000000)" fill="#4A90E2" fill-rule="nonzero" stroke="#4A90E2" stroke-width="0.5">
            <path d="M910,159.884985 C910,159.265608 909.718898,158.712249 909.280359,158.350098 C909.839125,157.889382 910.083832,157.17631 909.973746,156.486047 C909.824258,155.547902 908.969738,154.840489 907.986012,154.840489 C907.511852,154.840489 904.39709,154.840489 903.892895,154.840489 L904.020254,154.45022 C904.748488,152.220465 904.072203,149.837884 902.46934,148.44398 C901.574086,147.655547 900.046719,147.918431 899.577543,149.22285 C899.544844,149.313739 899.542566,149.413137 899.571012,149.505561 C899.927953,150.664567 899.93298,151.443876 899.588457,152.195418 C899.231215,152.974858 898.462633,153.793251 897.018539,154.931948 C896.67191,155.205228 896.368895,155.372266 896.075891,155.533822 C895.61432,155.788284 895.176082,156.029893 894.72302,156.595052 L893.15625,156.595052 L893.15625,156.1564 C893.15625,155.914133 892.963879,155.717748 892.726562,155.717748 L888.429688,155.717748 C888.192371,155.717748 888,155.914133 888,156.1564 L888,167.561348 C888,167.803616 888.192371,168 888.429688,168 L892.726562,168 C892.963879,168 893.15625,167.803616 893.15625,167.561348 L893.15625,166.245393 L895.566324,166.245393 C896.815555,167.378211 898.418934,168 900.100859,168 C901.092621,168 904.397391,168 905.488281,168 C906.557086,168 907.421875,167.117301 907.421875,166.026067 C907.421875,165.620577 907.301348,165.243292 907.095141,164.929437 L907.207031,164.929437 C908.275836,164.929437 909.140625,164.046738 909.140625,162.955504 C909.140625,162.497376 908.986539,162.075568 908.72907,161.740219 C909.46332,161.467509 910,160.745839 910,159.884985 Z M892.296875,167.12274 L888.859375,167.12274 L888.859375,156.595096 L892.296875,156.595096 L892.296875,167.12274 Z M908.066406,160.981614 C907.648492,160.981614 904.382137,160.981614 903.941406,160.981614 C903.704133,160.981614 903.511719,161.177999 903.511719,161.420266 C903.511719,161.662534 903.704133,161.858918 903.941406,161.858918 L907.207031,161.858918 C907.799355,161.858918 908.28125,162.350866 908.28125,162.955548 C908.28125,163.561721 907.800988,164.052177 907.207031,164.052177 C906.001801,164.052177 904.925562,164.052177 903.941406,164.052177 C903.704133,164.052177 903.511719,164.248562 903.511719,164.490829 C903.511719,164.733097 903.704133,164.929481 903.941406,164.929481 L905.488281,164.929481 C906.080605,164.929481 906.5625,165.421429 906.5625,166.026111 C906.5625,166.632284 906.082238,167.12274 905.488281,167.12274 C904.363746,167.12274 901.022625,167.12274 900.100859,167.12274 C898.579938,167.12274 897.132793,166.541526 896.025961,165.486218 C895.946383,165.410331 895.841539,165.368133 895.732656,165.368133 L893.15625,165.368133 L893.15625,157.4724 L894.933437,157.4724 C895.070035,157.4724 895.198469,157.406119 895.279465,157.293824 C895.667043,156.756388 896.009848,156.567373 896.484352,156.305805 C896.792566,156.135871 897.141902,155.943259 897.543961,155.626333 C900.485859,153.306523 901.159051,151.885247 900.438293,149.400943 C900.723219,148.841705 901.433879,148.690853 901.93859,149.135821 C903.308133,150.357993 903.805238,152.335129 903.205051,154.172904 L902.987156,154.840576 L902.4375,154.840576 C902.200227,154.840576 902.007812,155.036961 902.007812,155.279228 C902.007812,155.521496 902.200227,155.71788 902.4375,155.71788 C903.097371,155.71788 907.30818,155.71788 907.986055,155.71788 C908.55307,155.71788 909.042957,156.108719 909.125586,156.627074 C909.237562,157.328873 908.709262,157.911139 908.066449,157.911139 C907.626234,157.911139 904.360695,157.911139 903.941449,157.911139 C903.704176,157.911139 903.511762,158.107524 903.511762,158.349791 C903.511762,158.592058 903.704176,158.788443 903.941449,158.788443 C904.359363,158.788443 907.625719,158.788443 908.066449,158.788443 C908.658773,158.788443 909.140668,159.280391 909.140668,159.885073 C909.140625,160.491158 908.660363,160.981614 908.066406,160.981614 Z" id="Shape"></path>
        </g>
    </g>
</svg>