<?xml version="1.0" encoding="UTF-8"?>
<svg width="47px" height="52px" viewBox="0 0 47 52" version="1.1" xmlns="http://www.w3.org/2000/svg" xmlns:xlink="http://www.w3.org/1999/xlink">
    <!-- Generator: Sketch 50.2 (55047) - http://www.bohemiancoding.com/sketch -->
    <title>Shape</title>
    <desc>Created with Sketch.</desc>
    <defs></defs>
    <g id="Page-1" stroke="none" stroke-width="1" fill="none" fill-rule="evenodd">
        <g id="6degrees-web--首页推荐---展开tag" transform="translate(-1313.000000, -795.000000)" fill="#84B4CC" fill-rule="nonzero">
            <path d="M1314.29254,768 C1317.81701,768 1321.09078,769.851318 1322.86126,772.867075 L1330.65187,786.02989 C1332.4524,789.096736 1332.45129,792.892639 1330.64197,795.974386 L1322.87248,809.11388 C1321.0939,812.143352 1317.81054,814 1314.29254,814 L1298.73377,814 C1295.22293,814 1291.96635,812.163704 1290.15088,809.130679 L1282.38871,796.003309 C1280.54065,792.916038 1280.53885,789.074405 1282.37283,786.010839 L1290.1681,772.840391 C1291.96733,769.834682 1295.2248,768 1298.73377,768 L1314.29254,768 Z M1389.61989,782.722465 C1389.62315,782.728009 1389.62642,782.733536 1389.62971,782.739048 L1389.61989,782.722465 Z M1389.62979,806.295212 L1389.63836,806.280718 C1389.63549,806.285537 1389.63264,806.290368 1389.62979,806.295212 Z M1370.61577,795.911965 C1370.62036,795.904295 1370.62491,795.896608 1370.62942,795.888902 L1370.61577,795.911965 Z M1391.77112,807.554764 L1391.77295,807.551665 C1391.77235,807.55267 1391.77174,807.553702 1391.77112,807.554764 Z" id="Shape" transform="translate(1336.386476, 791.000000) rotate(-90.000000) translate(-1336.386476, -791.000000) "></path>
        </g>
    </g>
</svg>