<?xml version="1.0" encoding="UTF-8"?>
<svg width="23px" height="21px" viewBox="0 0 23 21" version="1.1" xmlns="http://www.w3.org/2000/svg" xmlns:xlink="http://www.w3.org/1999/xlink">
    <!-- Generator: Sketch 50.2 (55047) - http://www.bohemiancoding.com/sketch -->
    <title>Shape</title>
    <desc>Created with Sketch.</desc>
    <defs></defs>
    <g id="Page-1" stroke="none" stroke-width="1" fill="none" fill-rule="evenodd">
        <g id="6degrees-web--個人設定-消息通知" transform="translate(-673.000000, -288.000000)" fill="#595F6F" fill-rule="nonzero" stroke="#595F6F" stroke-width="0.5">
            <path d="M695,300.290736 C695,299.702328 694.731676,299.176637 694.31307,298.832593 C694.846437,298.394913 695.080021,297.717494 694.974939,297.061745 C694.832246,296.170507 694.016568,295.498464 693.077557,295.498464 C692.624949,295.498464 689.651768,295.498464 689.17049,295.498464 L689.292061,295.127709 C689.987193,293.009442 689.341648,290.745989 687.811643,289.421781 C686.957082,288.67277 685.499141,288.922509 685.051291,290.161707 C685.020078,290.248052 685.017904,290.34248 685.045057,290.430283 C685.385773,291.531339 685.390572,292.271682 685.061709,292.985647 C684.720705,293.726116 683.987059,294.503589 682.608605,295.58535 C682.277732,295.844966 681.98849,296.003653 681.708805,296.157131 C681.268215,296.398869 680.849896,296.628398 680.417428,297.1653 L678.921875,297.1653 L678.921875,296.74858 C678.921875,296.518426 678.738248,296.331861 678.511719,296.331861 L674.410156,296.331861 C674.183627,296.331861 674,296.518426 674,296.74858 L674,307.583281 C674,307.813435 674.183627,308 674.410156,308 L678.511719,308 C678.738248,308 678.921875,307.813435 678.921875,307.583281 L678.921875,306.333123 L681.2224,306.333123 C682.414848,307.4093 683.945346,308 685.55082,308 C686.497502,308 689.652055,308 690.693359,308 C691.713582,308 692.539062,307.161436 692.539062,306.124763 C692.539062,305.739548 692.424014,305.381128 692.22718,305.082965 L692.333984,305.082965 C693.354207,305.082965 694.179688,304.244401 694.179688,303.207729 C694.179688,302.772507 694.032605,302.37179 693.78684,302.053208 C694.487715,301.794134 695,301.108547 695,300.290736 Z M678,308 L675,308 L675,298 L678,298 L678,308 Z M692.991898,301.278523 C692.599722,301.278523 689.534528,301.278523 689.120941,301.278523 C688.89828,301.278523 688.717716,301.461488 688.717716,301.6872 C688.717716,301.912912 688.89828,302.095877 689.120941,302.095877 L692.185448,302.095877 C692.741294,302.095877 693.19351,302.554208 693.19351,303.117569 C693.19351,303.68232 692.742826,304.139262 692.185448,304.139262 C691.054443,304.139262 690.044486,304.139262 689.120941,304.139262 C688.89828,304.139262 688.717716,304.322226 688.717716,304.547939 C688.717716,304.773651 688.89828,304.956615 689.120941,304.956615 L690.57255,304.956615 C691.128395,304.956615 691.580611,305.414947 691.580611,305.978308 C691.580611,306.543058 691.129927,307 690.57255,307 C689.51727,307 686.381916,307 685.516918,307 C684.089664,307 682.731643,306.458503 681.692977,305.475308 C681.618299,305.404607 681.519913,305.365292 681.417735,305.365292 L679,305.365292 L679,298.009108 L680.667737,298.009108 C680.795923,298.009108 680.916446,297.947357 680.992454,297.842736 C681.356163,297.342025 681.677856,297.165926 682.123137,296.922232 C682.41237,296.76391 682.740192,296.58446 683.117489,296.289191 C685.878207,294.127903 686.509939,292.803749 685.83357,290.489208 C686.100949,289.968186 686.767842,289.827642 687.24147,290.242203 C688.526668,291.380859 688.993159,293.222888 688.429934,294.935081 L688.225459,295.557128 L687.709654,295.557128 C687.486993,295.557128 687.306429,295.740093 687.306429,295.965805 C687.306429,296.191518 687.486993,296.374482 687.709654,296.374482 C688.328886,296.374482 692.280368,296.374482 692.916495,296.374482 C693.44859,296.374482 693.908307,296.738613 693.985847,297.221547 C694.090927,297.875389 693.595162,298.417867 692.991938,298.417867 C692.578834,298.417867 689.514407,298.417867 689.120981,298.417867 C688.89832,298.417867 688.717756,298.600831 688.717756,298.826544 C688.717756,299.052256 688.89832,299.235221 689.120981,299.235221 C689.513157,299.235221 692.578351,299.235221 692.991938,299.235221 C693.547783,299.235221 694,299.693552 694,300.256913 C693.99996,300.821582 693.549275,301.278523 692.991898,301.278523 Z" id="Shape"></path>
        </g>
    </g>
</svg>