<?xml version="1.0" encoding="UTF-8"?>
<svg width="12px" height="12px" viewBox="0 0 12 12" version="1.1" xmlns="http://www.w3.org/2000/svg" xmlns:xlink="http://www.w3.org/1999/xlink">
    <!-- Generator: sketchtool 49.3 (51167) - http://www.bohemiancoding.com/sketch -->
    <title>5CCB165F-9BF7-4A7D-8A34-B23491D87F67</title>
    <desc>Created with sketchtool.</desc>
    <defs></defs>
    <g id="Page-1" stroke="none" stroke-width="1" fill="none" fill-rule="evenodd">
        <g id="6degrees---新闻阅读页" transform="translate(-460.000000, -2324.000000)">
            <g id="一条新闻，标题" transform="translate(160.000000, 2217.000000)">
                <g id="来源详情等-copy" transform="translate(240.000000, 100.000000)">
                    <g id="Group-6" transform="translate(60.000000, 7.000000)">
                        <polyline id="Path-2" stroke="#84B4CC" points="6 4 6 7.1816257 9.39941702 7.1816257"></polyline>
                        <path d="M9.7521668,0.79375 L9.0836869,1.65757 C8.2170805,1.15932 7.2467919,0.9165 6.2795451,0.9288 C5.0719099,0.9442 3.8696168,1.35638 2.8807168,2.16279 C0.90291648,3.7756 0.29777215,6.54264 1.4217335,8.83384 C2.5456933,11.12504 5.1042504,12.34078 7.5902184,11.76386 C10.076186,11.18695 11.839117,8.9683 11.839116,6.41627 L11.318705,6.41627 C11.318706,8.7292 9.7263208,10.73434 7.4732587,11.2572 C5.220197,11.78006 2.9075073,10.68104 1.8888493,8.6045 C0.87018998,6.52796 1.4171472,4.02747 3.2096512,2.56576 C4.804781,1.26499 7.007293,1.09714 8.761987,2.07332 L8.1605485,2.85032 L10.737282,3.20047 L9.7521668,0.79375 Z" id="Shape" fill="#84B4CC" fill-rule="nonzero"></path>
                    </g>
                </g>
            </g>
        </g>
    </g>
</svg>