<?xml version="1.0" encoding="UTF-8"?>
<svg width="11px" height="12px" viewBox="0 0 11 12" version="1.1" xmlns="http://www.w3.org/2000/svg" xmlns:xlink="http://www.w3.org/1999/xlink">
    <!-- Generator: sketchtool 49.3 (51167) - http://www.bohemiancoding.com/sketch -->
    <title>FAE7F509-4A99-43AA-8D3F-8F85582C83AD</title>
    <desc>Created with sketchtool.</desc>
    <defs></defs>
    <g id="Page-1" stroke="none" stroke-width="1" fill="none" fill-rule="evenodd">
        <g id="6degrees---新闻阅读页" transform="translate(-509.000000, -2325.000000)">
            <g id="一条新闻，标题" transform="translate(160.000000, 2217.000000)">
                <g id="来源详情等-copy" transform="translate(240.000000, 100.000000)">
                    <g id="Group-8" transform="translate(109.000000, 8.000000)">
                        <path d="M8.89128257,0 L8.22280267,0.86382 C7.35619627,0.36557 6.38590767,0.12275 5.41866087,0.13505 C4.21102567,0.15045 3.00873257,0.56263 2.01983257,1.36904 C0.0420322493,2.98185 -0.563112081,5.74889 0.560849269,8.04009 C1.68480907,10.33129 4.24336617,11.54703 6.72933417,10.97011 C9.21530177,10.3932 10.9782328,8.17455 10.9782318,5.62252 L10.4578208,5.62252 C10.4578218,7.93545 8.86543657,9.94059 6.61237447,10.46345 C4.35931277,10.98631 2.04662307,9.88729 1.02796507,7.81075 C0.0093057493,5.73421 0.556262969,3.23372 2.34876697,1.77201 C3.94389677,0.47124 6.14640877,0.30339 7.90110277,1.27957 L7.29966427,2.05657 L9.87639777,2.40672 L8.89128257,0 Z M5.48907807,3.70124 C3.35938337,3.70124 1.63277997,5.5562 1.63277997,5.5562 C1.63277997,5.5562 3.35938337,7.41116 5.48907807,7.41116 C7.61877187,7.41116 9.34537677,5.5562 9.34537677,5.5562 C9.34537677,5.5562 7.61877187,3.70124 5.48907807,3.70124 Z M5.48907807,4.39576 C6.12995502,4.39579744 6.64947826,4.91532305 6.64951277,5.5562 C6.64947273,6.19707304 6.12995111,6.71659256 5.48907807,6.71663 C4.84820503,6.71659256 4.32868341,6.19707304 4.32864337,5.5562 C4.32867788,4.91532305 4.84820112,4.39579744 5.48907807,4.39576 Z M5.48907807,4.98467 C5.17343064,4.984672 4.91754743,5.24055257 4.91754217,5.5562 C4.9175419,5.87185133 5.17342673,6.127738 5.48907807,6.12774 C5.80472925,6.12773778 6.06061383,5.87185118 6.06061357,5.5562 C6.06060831,5.24055273 5.80472534,4.98467222 5.48907807,4.98467 Z" id="Shape" fill="#84B4CC" fill-rule="nonzero"></path>
                        <g id="noun_View_915381_8e8e93" transform="translate(2.000000, 2.000000)"></g>
                    </g>
                </g>
            </g>
        </g>
    </g>
</svg>