<?xml version="1.0" encoding="UTF-8"?>
<svg width="20px" height="20px" viewBox="0 0 20 20" version="1.1" xmlns="http://www.w3.org/2000/svg" xmlns:xlink="http://www.w3.org/1999/xlink">
    <!-- Generator: sketchtool 49.3 (51167) - http://www.bohemiancoding.com/sketch -->
    <title>0A06DE22-0D15-428F-A3FB-36194DCF051B</title>
    <desc>Created with sketchtool.</desc>
    <defs></defs>
    <g id="Page-1" stroke="none" stroke-width="1" fill="none" fill-rule="evenodd">
        <g id="6degrees---首页推荐---展开tag" transform="translate(-860.000000, -700.000000)" fill="#4A90E2" fill-rule="nonzero">
            <g id="bookmark_373677_8e8e93-copy" transform="translate(860.000000, 700.000000)">
                <path d="M6.86363636,19.9318182 L0.818181818,19.9318182 C0.409090909,19.9318182 0.0681818182,19.5909091 0.0681818182,19.1818182 L0.0681818182,13.0454545 L0.0681818182,0.818181818 C0.0681818182,0.409090909 0.409090909,0.0681818182 0.818181818,0.0681818182 L3.45454545,0.0681818182 C3.77272727,0.0681818182 4.02272727,0.318181818 4.02272727,0.636363636 C4.02272727,0.954545455 3.77272727,1.20454545 3.45454545,1.20454545 L1.20454545,1.20454545 L1.20454545,13.0454545 L1.20454545,18.7954545 L6.86363636,18.7954545 L18.8181818,18.7954545 L18.8181818,13.0454545 L18.8181818,1.20454545 L16.5909091,1.20454545 C16.2727273,1.20454545 16.0227273,0.954545455 16.0227273,0.636363636 C16.0227273,0.318181818 16.2727273,0.0681818182 16.5909091,0.0681818182 L19.2045455,0.0681818182 C19.6136364,0.0681818182 19.9545455,0.409090909 19.9545455,0.818181818 L19.9545455,13.0454545 L19.9545455,19.1818182 C19.9545455,19.5909091 19.6136364,19.9318182 19.2045455,19.9318182 L6.86363636,19.9318182 Z M13.6363636,0.0681818182 C13.9545455,0.0681818182 14.2045455,0.318181818 14.2045455,0.636363636 L14.2045455,15.1136364 C14.2045455,15.6818182 13.75,16.1363636 13.1818182,16.1363636 C12.9318182,16.1363636 12.6818182,16.0454545 12.5,15.8636364 L9.97727273,13.5909091 L7.45454545,15.8636364 C7.27272727,16.0454545 7.02272727,16.1363636 6.77272727,16.1363636 C6.20454545,16.1363636 5.75,15.6818182 5.75,15.1136364 L5.75,0.636363636 C5.75,0.318181818 6,0.0681818182 6.31818182,0.0681818182 L13.6363636,0.0681818182 Z M13.0681818,1.20454545 L6.86363636,1.20454545 L6.86363636,14.8636364 L9.29545455,12.6818182 C9.47727273,12.5227273 9.72727273,12.4090909 9.97727273,12.4090909 C10.2272727,12.4090909 10.4772727,12.5 10.6590909,12.6818182 L13.0909091,14.8636364 L13.0909091,1.20454545 L13.0681818,1.20454545 Z" id="Shape"></path>
            </g>
        </g>
    </g>
</svg>