<?xml version="1.0" encoding="UTF-8"?>
<svg width="13px" height="13px" viewBox="0 0 13 13" version="1.1" xmlns="http://www.w3.org/2000/svg" xmlns:xlink="http://www.w3.org/1999/xlink">
    <!-- Generator: sketchtool 49.3 (51167) - http://www.bohemiancoding.com/sketch -->
    <title>48FE8FB7-632D-472F-BCFC-FAA400887AF1</title>
    <desc>Created with sketchtool.</desc>
    <defs></defs>
    <g id="Page-1" stroke="none" stroke-width="1" fill="none" fill-rule="evenodd">
        <g id="6degrees---新闻阅读页" transform="translate(-315.000000, -208.000000)">
            <g id="来源详情等-copy" transform="translate(161.000000, 201.000000)">
                <g id="Group-8" transform="translate(154.000000, 7.000000)">
                    <path d="M10.528715,0 L9.73712679,1.01054288 C8.71092481,0.427663355 7.56194635,0.143599521 6.41656988,0.157988719 C4.9865347,0.176004464 3.56282544,0.658194692 2.39180808,1.60157628 C0.0497729737,3.48832775 -0.666815677,6.72535926 0.664136143,9.40572767 C1.99508613,12.0860961 5.02483108,13.5083338 7.96861881,12.8334219 C10.9124061,12.1585217 13.0000012,9.56302617 13,6.57752487 L12.3837493,6.57752487 C12.3837505,9.28331419 10.4981092,11.6290343 7.83011963,12.2407039 C5.16213059,12.8523735 2.42353236,11.5666811 1.21727671,9.13743346 C0.0110195106,6.70818581 0.658705223,3.78297876 2.78131955,2.07299215 C4.67021093,0.551281777 7.27834096,0.354921862 9.35618214,1.49690948 L8.64398179,2.40588567 L11.6952505,2.81550989 L10.528715,0 Z M6.49995522,4.32990868 C3.97805263,4.32990868 1.93347527,6.49994018 1.93347527,6.49994018 C1.93347527,6.49994018 3.97805263,8.66997169 6.49995522,8.66997169 C9.02185674,8.66997169 11.0664359,6.49994018 11.0664359,6.49994018 C11.0664359,6.49994018 9.02185674,4.32990868 6.49995522,4.32990868 Z M6.49995522,5.14239535 C7.25885706,5.14243915 7.87405651,5.75020802 7.87409738,6.49994018 C7.87404997,7.24966778 7.25885244,7.85742952 6.49995522,7.85747332 C5.741058,7.85742952 5.12586047,7.24966778 5.12581306,6.49994018 C5.12585393,5.75020802 5.74105338,5.14243915 6.49995522,5.14239535 Z M6.49995522,5.8313338 C6.12617767,5.83133613 5.82317061,6.13067892 5.82316438,6.49994018 C5.82316407,6.86920601 6.12617305,7.16855593 6.49995522,7.16855827 C6.87373721,7.16855567 7.1767459,6.86920583 7.17674559,6.49994018 C7.17673936,6.13067911 6.87373259,5.83133639 6.49995522,5.8313338 Z" id="Shape" fill="#84B4CC" fill-rule="nonzero"></path>
                    <g id="noun_View_915381_8e8e93" transform="translate(2.000000, 2.000000)"></g>
                </g>
            </g>
        </g>
    </g>
</svg>