<?xml version="1.0" encoding="UTF-8"?>
<svg width="13px" height="13px" viewBox="0 0 13 13" version="1.1" xmlns="http://www.w3.org/2000/svg" xmlns:xlink="http://www.w3.org/1999/xlink">
    <!-- Generator: sketchtool 49.3 (51167) - http://www.bohemiancoding.com/sketch -->
    <title>CB2C19B5-920F-4B25-A262-8EE2513351EF</title>
    <desc>Created with sketchtool.</desc>
    <defs></defs>
    <g id="Page-1" stroke="none" stroke-width="1" fill="none" fill-rule="evenodd">
        <g id="6degrees---新闻阅读页" transform="translate(-239.000000, -208.000000)">
            <g id="来源详情等-copy" transform="translate(161.000000, 201.000000)">
                <g id="Group-6" transform="translate(78.000000, 6.000000)">
                    <polyline id="Path-2" stroke="#84B4CC" points="6 4.66666667 6 8.37856332 9.96598653 8.37856332"></polyline>
                    <path d="M10.3775279,0.926041667 L9.59763472,1.93383167 C8.58659392,1.35254 7.45459055,1.06925 6.32613595,1.0836 C4.91722822,1.10156667 3.51455293,1.58244333 2.36083627,2.523255 C0.05340256,4.40486667 -0.652599158,7.63308 0.658689083,10.3061467 C1.96997552,12.9792133 4.9549588,14.3975767 7.8552548,13.7245033 C10.7555503,13.0514417 12.8123032,10.4630167 12.812302,7.48564833 L12.2051558,7.48564833 C12.205157,10.1840667 10.3473743,12.5233967 7.71880182,13.1334 C5.09022983,13.7434033 2.39209185,12.4612133 1.20365752,10.0385833 C0.0152216433,7.61595333 0.6533384,4.698715 2.74459307,2.99338667 C4.60557783,1.47582167 7.17517517,1.27999667 9.22231817,2.41887333 L8.52063992,3.32537333 L11.526829,3.73388167 L10.3775279,0.926041667 Z" id="Shape" fill="#84B4CC" fill-rule="nonzero"></path>
                </g>
            </g>
        </g>
    </g>
</svg>